<svg xmlns="http://www.w3.org/2000/svg" viewBox="0 0 24 24" width="64" height="64">
  <!-- Rounded square background -->
  <rect x="2" y="2" width="20" height="20" rx="5" fill="#8b5cf6" />
  <!-- Car dashboard outline -->
  <path d="M19 14.5c0-.8-.7-1.5-1.5-1.5H16l-.8-2.4c-.2-.6-.8-1.1-1.5-1.1H10.3c-.7 0-1.3.5-1.5 1.1L8 13H6.5c-.8 0-1.5.7-1.5 1.5v2.5c0 .3.2.5.5.5h1c.3 0 .5-.2.5-.5V16h10v1c0 .3.2.5.5.5h1c.3 0 .5-.2.5-.5v-2.5z" fill="#ffffff" />
  <!-- Calculator keys representation at bottom -->
  <rect x="5" y="6" width="3" height="3" rx="0.5" fill="rgba(255,255,255,0.4)" />
  <rect x="10.5" y="6" width="3" height="3" rx="0.5" fill="rgba(255,255,255,0.4)" />
  <rect x="16" y="6" width="3" height="3" rx="0.5" fill="rgba(255,255,255,0.4)" />
</svg>
